<svg xmlns="http://www.w3.org/2000/svg" width="1200" height="900" viewBox="0 0 1200 900">
  <defs>
    <linearGradient id="g" x1="0" x2="1" y1="0" y2="1">
      <stop offset="0" stop-color="#fff"/>
      <stop offset="1" stop-color="#f5f5f5"/>
    </linearGradient>
  </defs>
  <rect width="1200" height="900" fill="url(#g)"/>
  <path d="M600 220c160 0 270 130 270 280 0 160-110 250-270 250S330 660 330 500c0-150 110-280 270-280z" fill="#e11d48"/>
  <path d="M600 190c70 20 130 60 170 120-70-10-120 0-170 30-50-30-100-40-170-30 40-60 100-100 170-120z" fill="#16a34a"/>
  <text x="600" y="760" text-anchor="middle" font-family="ui-sans-serif, system-ui" font-size="54" fill="#171717" font-weight="700">Çilek</text>
</svg>
